<svg width="54" height="21" viewBox="0 0 54 21" fill="none" xmlns="http://www.w3.org/2000/svg">
<g opacity="0.6">
<circle cx="3.345" cy="16.7234" r="3.345" transform="rotate(-90 3.345 16.7234)" fill="#886CFF"/>
<circle cx="3.345" cy="3.34464" r="3.345" transform="rotate(-90 3.345 3.34464)" fill="#886CFF"/>
</g>
<g opacity="0.6">
<circle cx="15.0638" cy="16.7234" r="3.345" transform="rotate(-90 15.0638 16.7234)" fill="#886CFF"/>
<circle cx="15.0638" cy="3.34464" r="3.345" transform="rotate(-90 15.0638 3.34464)" fill="#886CFF"/>
</g>
<g opacity="0.6">
<circle cx="38.5013" cy="16.7234" r="3.345" transform="rotate(-90 38.5013 16.7234)" fill="#886CFF"/>
<circle cx="38.5013" cy="3.34464" r="3.345" transform="rotate(-90 38.5013 3.34464)" fill="#886CFF"/>
</g>
<g opacity="0.6">
<circle cx="26.7825" cy="16.7234" r="3.345" transform="rotate(-90 26.7825 16.7234)" fill="#886CFF"/>
<circle cx="26.7825" cy="3.34464" r="3.345" transform="rotate(-90 26.7825 3.34464)" fill="#886CFF"/>
</g>
<g opacity="0.6">
<circle cx="50.22" cy="16.7234" r="3.345" transform="rotate(-90 50.22 16.7234)" fill="#886CFF"/>
<circle cx="50.22" cy="3.34464" r="3.345" transform="rotate(-90 50.22 3.34464)" fill="#886CFF"/>
</g>
</svg>
