<svg width="79" height="20" viewBox="0 0 79 20" fill="none" xmlns="http://www.w3.org/2000/svg">
<path d="M2 9.81902C3.58398 7.42506 10.4615 -5.06929 21.1648 7.56554C25.4923 12.6741 31.4606 8.58117 33.8366 5.82448C40.4615 0.0240835 43.1538 2.76667 48.6864 7.56554C52.7692 11.1069 56.9838 9.48443 61.2308 5.11745C67.3687 -1.19392 74.228 4.0834 77 9.52424" stroke="#FFA571" stroke-width="3" stroke-linecap="round"/>
<path d="M2 17.819C3.58398 15.4251 10.4615 2.93071 21.1648 15.5655C25.4923 20.6741 31.4606 16.5812 33.8366 13.8245C40.4615 8.02408 43.1538 10.7667 48.6864 15.5655C52.7692 19.1069 56.9838 17.4844 61.2308 13.1175C67.3687 6.80608 74.228 12.0834 77 17.5242" stroke="#FFA571" stroke-width="3" stroke-linecap="round"/>
</svg>
